<svg xmlns="http://www.w3.org/2000/svg" viewBox="0 0 100 100" width="100" height="100">
  <!-- Dark purple background -->
  <rect width="100" height="100" fill="#4a148c"/>
  
  <!-- Yellow lightning bolt - pointing down and to the right -->
  <path d="M 45 15 L 40 35 L 48 35 L 42 55 L 52 30 L 45 30 Z" fill="#ffeb3b"/>
  
  <!-- Upper blue wave - more prominent, forming a crest on the right -->
  <path d="M 25 65 Q 35 50, 45 58 Q 55 50, 65 58 Q 75 50, 85 58 L 85 80 Q 75 72, 65 78 Q 55 72, 45 78 Q 35 72, 25 78 Z" fill="#2196f3"/>
  
  <!-- Lower darker blue wave - smaller, extending to the left -->
  <path d="M 15 80 Q 30 72, 45 76 Q 60 72, 75 76 L 75 92 Q 60 88, 45 90 Q 30 88, 15 92 Z" fill="#1565c0"/>
</svg>

